<svg xmlns="http://www.w3.org/2000/svg" viewBox="0 0 79.05 10.35"><defs><style>.cls-1{fill:#305ff9;}.cls-2{fill:#1dc1f8;}</style></defs><title>book_holidays</title><g id="Layer_2" data-name="Layer 2"><g id="Layer_1-2" data-name="Layer 1"><path class="cls-1" d="M0,8.05V.22H4.12a2,2,0,0,1,2.25,2A1.74,1.74,0,0,1,5,4a1.88,1.88,0,0,1,1.5,1.92A2.05,2.05,0,0,1,4.25,8.05ZM4.67,2.51a.82.82,0,0,0-.92-.82H1.67V3.33H3.75A.81.81,0,0,0,4.67,2.51Zm.15,3.18a.89.89,0,0,0-1-.89H1.67V6.58H3.83C4.45,6.58,4.82,6.25,4.82,5.69Z"></path><path class="cls-1" d="M8,5.21a2.87,2.87,0,0,1,3-3,2.88,2.88,0,0,1,3,3,2.88,2.88,0,0,1-3,3A2.88,2.88,0,0,1,8,5.21Zm4.45,0a1.46,1.46,0,1,0-2.9,0,1.46,1.46,0,1,0,2.9,0Z"></path><path class="cls-1" d="M15.31,5.21a2.87,2.87,0,0,1,3-3,2.87,2.87,0,0,1,3,3,2.88,2.88,0,0,1-3,3A2.87,2.87,0,0,1,15.31,5.21Zm4.45,0a1.46,1.46,0,1,0-2.9,0,1.46,1.46,0,1,0,2.9,0Z"></path><path class="cls-1" d="M26.68,8.05l-1.5-2.18-.68.72V8.05H23V.22H24.5V4.9l2.15-2.52h1.83L26.24,5l2.31,3.1Z"></path><path class="cls-2" d="M35.29,8.05V4.75h-3.7v3.3H29.92V.22h1.67V3.3h3.7V.22H37V8.05Z"></path><path class="cls-2" d="M38.69,5.21a3,3,0,0,1,6,0,3,3,0,0,1-6,0Zm4.45,0a1.46,1.46,0,1,0-2.9,0,1.46,1.46,0,1,0,2.9,0Z"></path><path class="cls-2" d="M46.39,8.05V.22h1.49V8.05Z"></path><path class="cls-2" d="M49.81.88a.89.89,0,0,1,1.77,0,.89.89,0,1,1-1.77,0ZM50,8.05V2.38h1.49V8.05Z"></path><path class="cls-2" d="M57.4,8.05V7.32a2.15,2.15,0,0,1-1.75.87c-1.42,0-2.51-1.08-2.51-3s1.07-3,2.51-3a2.14,2.14,0,0,1,1.75.87V.22h1.5V8.05Zm0-1.83v-2a1.61,1.61,0,0,0-1.28-.64,1.48,1.48,0,0,0-1.44,1.64,1.48,1.48,0,0,0,1.44,1.65A1.61,1.61,0,0,0,57.4,6.22Z"></path><path class="cls-2" d="M64.38,8.05v-.6a2.32,2.32,0,0,1-1.8.74,1.88,1.88,0,0,1-2-1.88,1.8,1.8,0,0,1,2-1.83,2.36,2.36,0,0,1,1.8.69V4.46c0-.58-.5-1-1.25-1a2.35,2.35,0,0,0-1.63.67l-.59-1a3.69,3.69,0,0,1,2.48-.89c1.3,0,2.49.52,2.49,2.15V8.05Zm0-1.36V6a1.54,1.54,0,0,0-1.2-.5c-.59,0-1.07.32-1.07.86s.48.84,1.07.84A1.5,1.5,0,0,0,64.38,6.69Z"></path><path class="cls-2" d="M68,8.93a1.27,1.27,0,0,0,.47.09.74.74,0,0,0,.78-.41l.21-.49L67.13,2.38h1.59L70.2,6.32l1.49-3.94h1.6L70.62,9a2.06,2.06,0,0,1-2.15,1.37,3.64,3.64,0,0,1-.72-.09Z"></path><path class="cls-2" d="M74.05,7.31l.65-1.08a3.19,3.19,0,0,0,2,.79c.64,0,1-.25,1-.6,0-.93-3.36-.17-3.36-2.4,0-.95.82-1.78,2.32-1.78A3.59,3.59,0,0,1,78.85,3l-.6,1.05a2.44,2.44,0,0,0-1.68-.66c-.54,0-.89.24-.89.56,0,.83,3.37.12,3.37,2.41,0,1-.89,1.81-2.46,1.81A3.83,3.83,0,0,1,74.05,7.31Z"></path></g></g></svg>