<svg xmlns="http://www.w3.org/2000/svg" viewBox="0 0 41.77 8.96"><defs><style>.cls-1{fill:#e22d2d;}</style></defs><title>etravel</title><g id="Layer_2" data-name="Layer 2"><g id="Layer_1-2" data-name="Layer 1"><path class="cls-1" d="M0,8.8V.59H5.24V2.35H1.76V3.52H4.44V5.28H1.76V7H5.24V8.8Z"></path><path class="cls-1" d="M10.34,4.7h-1V8.8H7.58V4.7H6.82V2.94h.76V1.09H9.34V2.94h1Z"></path><path class="cls-1" d="M12,8.8V2.94h1.76V3.3a2.62,2.62,0,0,1,.67-.39,2.35,2.35,0,0,1,.79-.14,2.43,2.43,0,0,1,.65.09l-.69,1.79a1.07,1.07,0,0,0-.43-.09,1,1,0,0,0-.86.49,1,1,0,0,0-.13.5V8.8Z"></path><path class="cls-1" d="M21.48,2.94h1.76V8.8H21.48l-.09-.52a1.7,1.7,0,0,1-.54.49,1.61,1.61,0,0,1-.78.19,3,3,0,0,1-1.23-.25,3.11,3.11,0,0,1-1-.68,3.11,3.11,0,0,1-.92-2.24A3,3,0,0,1,18.74,3a2.88,2.88,0,0,1,1.17-.24,2,2,0,0,1,.92.21,2.93,2.93,0,0,1,.73.52ZM20,7.27a1.27,1.27,0,0,0,.66-.19,1.39,1.39,0,0,0,.48-.51,1.53,1.53,0,0,0,0-1.4,1.39,1.39,0,0,0-.48-.51A1.27,1.27,0,0,0,20,4.47a1.22,1.22,0,0,0-.66.19,1.28,1.28,0,0,0-.47.51,1.45,1.45,0,0,0,0,1.4,1.36,1.36,0,0,0,.47.51A1.27,1.27,0,0,0,20,7.27Z"></path><path class="cls-1" d="M29.07,8.8H26.79L24.65,2.94h1.88l1.4,3.85,1.39-3.85H31.2Z"></path><path class="cls-1" d="M35.43,9A2.74,2.74,0,0,1,34,8.54a3.08,3.08,0,0,1-1.06-1.12,3.18,3.18,0,0,1-.4-1.56,3.24,3.24,0,0,1,.23-1.2,3.43,3.43,0,0,1,.63-1A2.84,2.84,0,0,1,34.29,3a2.78,2.78,0,0,1,1.14-.24,2.67,2.67,0,0,1,1.29.31,2.81,2.81,0,0,1,1,.83,3.38,3.38,0,0,1,.58,1.19,3.07,3.07,0,0,1,0,1.35H34.4a1.07,1.07,0,0,0,.22.37.91.91,0,0,0,.34.27,1.12,1.12,0,0,0,.47.11,1,1,0,0,0,.48-.12,1.24,1.24,0,0,0,.38-.31l1.8.41A3.1,3.1,0,0,1,37,8.46,2.71,2.71,0,0,1,35.43,9Zm-1.1-3.8h2.2a1.22,1.22,0,0,0-.24-.45,1.14,1.14,0,0,0-.39-.3,1.06,1.06,0,0,0-.94,0,1.2,1.2,0,0,0-.38.3A1.41,1.41,0,0,0,34.33,5.16Z"></path><path class="cls-1" d="M40,8.8V0h1.76V8.8Z"></path></g></g></svg>