<svg xmlns="http://www.w3.org/2000/svg" viewBox="0 0 77.4 11.74"><defs><style>.cls-1{fill:#bd9b57;}</style></defs><title>luxury</title><g id="Layer_2" data-name="Layer 2"><g id="Layer_1-2" data-name="Layer 1"><path class="cls-1" d="M.7,10V1.76H2.47V8.22H5.69V10Z" transform="translate(-0.7 -1.17)"></path><path class="cls-1" d="M7.34,7.85V4.11H9.1V7.35a1,1,0,0,0,.13.51.93.93,0,0,0,.36.35,1,1,0,0,0,1,0A.93.93,0,0,0,11,7.86a1,1,0,0,0,.13-.51V4.11h1.76V10H11.09V9.6a2,2,0,0,1-.67.39,2.3,2.3,0,0,1-.79.14,2.18,2.18,0,0,1-1.15-.31A2.3,2.3,0,0,1,7.65,9,2.18,2.18,0,0,1,7.34,7.85Z" transform="translate(-0.7 -1.17)"></path><path class="cls-1" d="M14.38,10,16.52,7,14.4,4.11h2.17l1,1.42,1-1.42h2.17L18.69,7l2.15,3H18.67L17.6,8.52,16.55,10Z" transform="translate(-0.7 -1.17)"></path><path class="cls-1" d="M22.37,7.85V4.11h1.76V7.35a1,1,0,0,0,.13.51,1,1,0,0,0,.37.35A1,1,0,0,0,26,7.86a1,1,0,0,0,.13-.51V4.11h1.76V10H26.12V9.6a2,2,0,0,1-.67.39,2.3,2.3,0,0,1-.79.14,2.18,2.18,0,0,1-1.15-.31A2.3,2.3,0,0,1,22.68,9,2.18,2.18,0,0,1,22.37,7.85Z" transform="translate(-0.7 -1.17)"></path><path class="cls-1" d="M29.65,10V4.11H31.4v.37a2,2,0,0,1,.67-.39,2.09,2.09,0,0,1,.79-.15,2.5,2.5,0,0,1,.65.1l-.7,1.78a1,1,0,0,0-.42-.09,1,1,0,0,0-.5.13,1,1,0,0,0-.36.36,1,1,0,0,0-.13.5V10Z" transform="translate(-0.7 -1.17)"></path><path class="cls-1" d="M39,4.11h1.88l-3.22,8.8H35.75l1-2.93L34.69,4.11h1.92l1.07,3.46Z" transform="translate(-0.7 -1.17)"></path><path class="cls-1" d="M47.26,1.76H49V10H47.26V6.46H44.35V10H42.59V1.76h1.76V4.7h2.91Z" transform="translate(-0.7 -1.17)"></path><path class="cls-1" d="M53.6,10.13a2.68,2.68,0,0,1-1.47-.42A3.08,3.08,0,0,1,51.06,8.6,3.17,3.17,0,0,1,50.67,7a3,3,0,0,1,.23-1.2,3.1,3.1,0,0,1,.63-1,2.92,2.92,0,0,1,.93-.66,2.63,2.63,0,0,1,1.14-.25,2.74,2.74,0,0,1,1.48.42,3.08,3.08,0,0,1,1.06,1.12,3.24,3.24,0,0,1,.17,2.76,3.43,3.43,0,0,1-.63,1,2.84,2.84,0,0,1-.94.67A2.71,2.71,0,0,1,53.6,10.13Zm0-1.76a1.06,1.06,0,0,0,.6-.18,1.19,1.19,0,0,0,.42-.49A1.46,1.46,0,0,0,54.78,7a1.39,1.39,0,0,0-.17-.67,1.34,1.34,0,0,0-.42-.49,1.12,1.12,0,0,0-.59-.17,1,1,0,0,0-.59.18,1.36,1.36,0,0,0-.43.49,1.49,1.49,0,0,0-.15.66,1.39,1.39,0,0,0,.16.68,1.22,1.22,0,0,0,.43.47A1,1,0,0,0,53.6,8.37Z" transform="translate(-0.7 -1.17)"></path><path class="cls-1" d="M61.41,5.87h-1V10H58.65V5.87h-.76V4.11h.76V2.27h1.76V4.11h1Z" transform="translate(-0.7 -1.17)"></path><path class="cls-1" d="M65.63,10.13a2.68,2.68,0,0,1-1.47-.42A2.93,2.93,0,0,1,63.1,8.59,3,3,0,0,1,62.7,7a3.17,3.17,0,0,1,.23-1.2,3.1,3.1,0,0,1,.63-1,3,3,0,0,1,.94-.66,2.56,2.56,0,0,1,1.13-.25,2.79,2.79,0,0,1,1.29.31,3.08,3.08,0,0,1,1,.84,3.16,3.16,0,0,1,.57,1.18,3.11,3.11,0,0,1,0,1.36H64.6a1.72,1.72,0,0,0,.22.37,1,1,0,0,0,.34.26,1,1,0,0,0,.47.11,1,1,0,0,0,.48-.11,1.34,1.34,0,0,0,.39-.32l1.79.42a3.15,3.15,0,0,1-1.07,1.28A2.7,2.7,0,0,1,65.63,10.13Zm-1.09-3.8h2.2a1.48,1.48,0,0,0-.25-.44,1.4,1.4,0,0,0-.38-.31,1.13,1.13,0,0,0-.48-.11,1,1,0,0,0-.46.11,1.15,1.15,0,0,0-.38.31A1.48,1.48,0,0,0,64.54,6.33Z" transform="translate(-0.7 -1.17)"></path><path class="cls-1" d="M70.21,10V1.17H72V10Z" transform="translate(-0.7 -1.17)"></path><path class="cls-1" d="M75.66,10.08a3.15,3.15,0,0,1-.86-.19,2.4,2.4,0,0,1-.73-.42,1.77,1.77,0,0,1-.51-.64L75,8.19l.16.17a1.14,1.14,0,0,0,.27.17.94.94,0,0,0,.39.07,1.36,1.36,0,0,0,.29,0,.53.53,0,0,0,.24-.11.3.3,0,0,0,.09-.23A.29.29,0,0,0,76.36,8a.69.69,0,0,0-.29-.12l-.32-.07a3,3,0,0,1-1-.33A2.16,2.16,0,0,1,74,6.81a1.54,1.54,0,0,1-.31-.94,1.8,1.8,0,0,1,.31-1,2,2,0,0,1,.82-.68,2.44,2.44,0,0,1,1.08-.24,2.85,2.85,0,0,1,1.27.28,2.51,2.51,0,0,1,1,.81l-1.38.82a1.53,1.53,0,0,0-.18-.18.91.91,0,0,0-.23-.15A.75.75,0,0,0,76,5.4a1,1,0,0,0-.36,0,.49.49,0,0,0-.26.12.41.41,0,0,0-.09.28.25.25,0,0,0,.16.25,1.34,1.34,0,0,0,.37.11,1.9,1.9,0,0,1,.34.08,4.77,4.77,0,0,1,.95.43,2.47,2.47,0,0,1,.72.64,1.38,1.38,0,0,1,.25.88,1.64,1.64,0,0,1-.35,1,2.19,2.19,0,0,1-.91.67A2.36,2.36,0,0,1,75.66,10.08Z" transform="translate(-0.7 -1.17)"></path></g></g></svg>