<svg xmlns="http://www.w3.org/2000/svg" viewBox="0 0 58.83 9.99"><defs><style>.cls-1{fill:#2b2b2b;}</style></defs><title>tophotels</title><g id="Layer_2" data-name="Layer 2"><g id="Layer_1-2" data-name="Layer 1"><path class="cls-1" d="M2.29,7.83V1.47H0V0H6.24V1.47H4V7.83Z"></path><path class="cls-1" d="M7.5,5a2.87,2.87,0,0,1,3-3,2.88,2.88,0,0,1,3,3,2.89,2.89,0,0,1-3,3A2.89,2.89,0,0,1,7.5,5ZM12,5a1.46,1.46,0,1,0-2.9,0A1.46,1.46,0,1,0,12,5Z"></path><path class="cls-1" d="M16.69,7.1V10H15.2V2.16h1.49v.72A2.18,2.18,0,0,1,18.44,2C19.9,2,21,3.1,21,5S19.9,8,18.44,8A2.18,2.18,0,0,1,16.69,7.1ZM19.41,5A1.48,1.48,0,0,0,18,3.34,1.65,1.65,0,0,0,16.69,4V6A1.67,1.67,0,0,0,18,6.64,1.48,1.48,0,0,0,19.41,5Z"></path><path class="cls-1" d="M28,7.83V4.53h-3.7v3.3H22.67V0h1.66V3.07H28V0h1.68V7.83Z"></path><path class="cls-1" d="M31.44,5a3,3,0,0,1,6,0,3,3,0,0,1-6,0Zm4.44,0A1.46,1.46,0,1,0,33,5a1.46,1.46,0,1,0,2.89,0Z"></path><path class="cls-1" d="M39.44,6.41V3.46H38.5V2.16h.94V.61h1.49V2.16h1.15v1.3H40.93V6c0,.36.19.63.52.63A.8.8,0,0,0,42,6.47l.31,1.13A1.82,1.82,0,0,1,41,8,1.41,1.41,0,0,1,39.44,6.41Z"></path><path class="cls-1" d="M43.33,5a2.89,2.89,0,0,1,2.93-3A2.83,2.83,0,0,1,49.1,5.13v.35H44.89a1.53,1.53,0,0,0,1.63,1.27A2.37,2.37,0,0,0,48,6.2l.67,1A3.5,3.5,0,0,1,46.36,8,2.87,2.87,0,0,1,43.33,5Zm2.93-1.75a1.3,1.3,0,0,0-1.38,1.21h2.79A1.3,1.3,0,0,0,46.26,3.24Z"></path><path class="cls-1" d="M50.77,7.83V0h1.49V7.83Z"></path><path class="cls-1" d="M53.84,7.09,54.48,6a3.21,3.21,0,0,0,2,.78c.65,0,1-.24,1-.59C57.39,5.27,54,6,54,3.8,54,2.85,54.86,2,56.36,2a3.62,3.62,0,0,1,2.27.77L58,3.85a2.46,2.46,0,0,0-1.68-.66c-.54,0-.89.24-.89.55,0,.84,3.36.13,3.36,2.42,0,1-.89,1.81-2.46,1.81A3.79,3.79,0,0,1,53.84,7.09Z"></path></g></g></svg>